<?xml version="1.0" encoding="UTF-8"?>
<!DOCTYPE svg PUBLIC "-//W3C//DTD SVG 1.1//EN" "http://www.w3.org/Graphics/SVG/1.1/DTD/svg11.dtd">
<svg xmlns="http://www.w3.org/2000/svg" version="1.1" width="223px" height="226px" style="shape-rendering:geometricPrecision; text-rendering:geometricPrecision; image-rendering:optimizeQuality; fill-rule:evenodd; clip-rule:evenodd" xmlns:xlink="http://www.w3.org/1999/xlink">
<g><path style="opacity:1" fill="#66b5fe" d="M -0.5,-0.5 C 73.8333,-0.5 148.167,-0.5 222.5,-0.5C 222.5,74.8333 222.5,150.167 222.5,225.5C 148.167,225.5 73.8333,225.5 -0.5,225.5C -0.5,150.167 -0.5,74.8333 -0.5,-0.5 Z"/></g>
<g><path style="opacity:1" fill="#fa670b" d="M 162.5,42.5 C 162.963,45.4824 163.296,48.4824 163.5,51.5C 162.911,54.2762 161.578,56.6096 159.5,58.5C 157.973,58.427 156.973,59.0937 156.5,60.5C 146.49,63.158 140.823,59.3247 139.5,49C 139.782,46.04 140.449,43.2066 141.5,40.5C 146.934,35.8228 152.934,35.1561 159.5,38.5C 160.524,39.8518 161.524,41.1851 162.5,42.5 Z"/></g>
<g><path style="opacity:1" fill="#f6fbfb" d="M 95.5,68.5 C 93.8097,70.5038 92.4764,72.8371 91.5,75.5C 89.5988,76.2309 87.5988,76.2309 85.5,75.5C 85.5,71.5 85.5,67.5 85.5,63.5C 86.6042,57.7793 87.6042,51.946 88.5,46C 94.5952,45.6784 100.595,46.345 106.5,48C 102.416,54.6712 98.7495,61.5046 95.5,68.5 Z"/></g>
<g><path style="opacity:1" fill="#bf8667" d="M 162.5,42.5 C 163.931,43.7804 164.598,45.4471 164.5,47.5C 164.768,49.099 164.434,50.4324 163.5,51.5C 163.296,48.4824 162.963,45.4824 162.5,42.5 Z"/></g>
<g><path style="opacity:1" fill="#fa670a" d="M 156.5,67.5 C 160.241,73.3084 163.741,79.3084 167,85.5C 168.284,88.8074 169.617,92.1407 171,95.5C 172.129,97.1412 173.629,98.1412 175.5,98.5C 177.629,100.95 180.296,102.617 183.5,103.5C 180.78,100.322 179.946,96.6555 181,92.5C 181.671,91.7476 182.504,91.4142 183.5,91.5C 188.167,91.5 192.833,91.5 197.5,91.5C 199.308,98.228 196.975,102.561 190.5,104.5C 190.167,105.333 189.833,106.167 189.5,107C 189.933,108.928 190.6,110.761 191.5,112.5C 191.199,114.422 190.533,116.088 189.5,117.5C 185.838,117.966 182.505,117.299 179.5,115.5C 175.072,112.109 170.406,108.942 165.5,106C 162.853,103.199 160.853,100.032 159.5,96.5C 159.306,94.0882 157.973,93.0882 155.5,93.5C 155.5,95.5 155.5,97.5 155.5,99.5C 154.638,105.282 153.304,110.949 151.5,116.5C 151.833,117.5 152.167,118.5 152.5,119.5C 159.428,128.435 166.762,137.102 174.5,145.5C 175.466,147.396 175.799,149.396 175.5,151.5C 175.294,154.495 175.96,157.162 177.5,159.5C 178.508,164.961 179.508,170.294 180.5,175.5C 181.26,180.865 179.926,185.532 176.5,189.5C 176.167,189.5 175.833,189.5 175.5,189.5C 171.18,190.251 167.847,188.917 165.5,185.5C 163.883,179.685 162.549,173.685 161.5,167.5C 161.435,164.572 160.768,161.905 159.5,159.5C 159.708,157.08 159.374,154.747 158.5,152.5C 155.119,148.452 151.452,144.785 147.5,141.5C 145.768,137.767 143.101,135.101 139.5,133.5C 138.226,142.511 135.893,151.177 132.5,159.5C 131.094,159.973 130.427,160.973 130.5,162.5C 128.75,163.659 127.75,165.326 127.5,167.5C 123.959,171.614 121.292,176.281 119.5,181.5C 117.631,183.034 116.298,185.034 115.5,187.5C 110.366,190.695 105.866,190.029 102,185.5C 101.833,184.167 101.667,182.833 101.5,181.5C 101.361,179.117 102.028,177.117 103.5,175.5C 105.245,173.967 106.245,171.967 106.5,169.5C 108.408,168.514 109.408,166.848 109.5,164.5C 111.846,159.308 114.846,154.475 118.5,150C 120.19,139.765 122.19,129.599 124.5,119.5C 125.79,116.358 126.79,113.025 127.5,109.5C 128.092,106.873 128.425,104.206 128.5,101.5C 130.354,97.5839 131.02,93.5839 130.5,89.5C 128.167,91.5 125.833,93.5 123.5,95.5C 122.548,97.0453 122.215,98.712 122.5,100.5C 121.833,100.5 121.5,100.833 121.5,101.5C 120.883,101.611 120.383,101.944 120,102.5C 119.352,107.204 119.519,111.871 120.5,116.5C 117.365,121.104 115.032,126.104 113.5,131.5C 112.662,131.842 112.328,132.508 112.5,133.5C 109.032,137.141 105.698,140.974 102.5,145C 97.8363,145.154 94.503,142.987 92.5,138.5C 96.6023,133.744 100.269,128.744 103.5,123.5C 103.833,123.5 104.167,123.5 104.5,123.5C 105.458,123.047 106.292,122.381 107,121.5C 107.308,114.317 108.475,107.317 110.5,100.5C 110.5,100.167 110.5,99.8333 110.5,99.5C 111.069,95.4737 112.069,91.4737 113.5,87.5C 114.167,87.1667 114.833,86.8333 115.5,86.5C 119.817,83.5136 123.817,80.1803 127.5,76.5C 132.459,73.2078 137.126,69.5411 141.5,65.5C 146.848,63.8669 151.848,64.5335 156.5,67.5 Z"/></g>
<g><path style="opacity:1" fill="#f8fbfa" d="M 113.5,87.5 C 112.069,91.4737 111.069,95.4737 110.5,99.5C 110.631,98.7611 110.464,98.0944 110,97.5C 100.618,103.15 93.6177,101.15 89,91.5C 89.2727,77.1008 96.1061,72.9342 109.5,79C 111.654,81.4557 112.987,84.2891 113.5,87.5 Z"/></g>
<g><path style="opacity:1" fill="#f8fcfb" d="M 58.5,81.5 C 63.6822,92.1356 60.5155,98.8022 49,101.5C 46.4564,100.929 43.9564,100.262 41.5,99.5C 35.7796,93.7763 35.113,87.443 39.5,80.5C 46.1501,75.1653 52.4834,75.4986 58.5,81.5 Z"/></g>
<g><path style="opacity:1" fill="#f8fcfb" d="M 79.5,76.5 C 90.0048,84.246 90.0048,92.0793 79.5,100C 69.2759,102.572 63.6093,98.7383 62.5,88.5C 62.5916,86.7422 62.925,85.0755 63.5,83.5C 67.1066,77.578 72.44,75.2446 79.5,76.5 Z"/></g>
<g><path style="opacity:1" fill="#ecf1ec" d="M 127.5,76.5 C 123.817,80.1803 119.817,83.5136 115.5,86.5C 116.751,79.9188 120.751,76.5855 127.5,76.5 Z"/></g>
<g><path style="opacity:1" fill="#99bada" d="M 197.5,91.5 C 192.833,91.5 188.167,91.5 183.5,91.5C 183.158,90.6618 182.492,90.3284 181.5,90.5C 181.577,89.2502 182.244,88.4169 183.5,88C 188.204,87.3523 192.871,87.519 197.5,88.5C 197.5,89.5 197.5,90.5 197.5,91.5 Z"/></g>
<g><path style="opacity:1" fill="#d58351" d="M 159.5,96.5 C 158.85,96.1961 158.183,95.8627 157.5,95.5C 156.828,96.9492 156.161,98.2825 155.5,99.5C 155.5,97.5 155.5,95.5 155.5,93.5C 157.973,93.0882 159.306,94.0882 159.5,96.5 Z"/></g>
<g><path style="opacity:1" fill="#f8f1e6" d="M 128.5,101.5 C 126.435,101.483 124.435,101.15 122.5,100.5C 122.215,98.712 122.548,97.0453 123.5,95.5C 125.833,93.5 128.167,91.5 130.5,89.5C 131.02,93.5839 130.354,97.5839 128.5,101.5 Z"/></g>
<g><path style="opacity:1" fill="#bba8a8" d="M 181.5,90.5 C 182.492,90.3284 183.158,90.6618 183.5,91.5C 182.504,91.4142 181.671,91.7476 181,92.5C 179.946,96.6555 180.78,100.322 183.5,103.5C 180.296,102.617 177.629,100.95 175.5,98.5C 176.583,98.5394 177.583,98.8728 178.5,99.5C 179.318,96.8929 179.818,94.2263 180,91.5C 180.383,90.944 180.883,90.6107 181.5,90.5 Z"/></g>
<g><path style="opacity:1" fill="#74b6ee" d="M 141.5,40.5 C 140.449,43.2066 139.782,46.04 139.5,49C 140.823,59.3247 146.49,63.158 156.5,60.5C 158.027,60.573 159.027,59.9063 159.5,58.5C 161.578,56.6096 162.911,54.2762 163.5,51.5C 164.434,50.4324 164.768,49.099 164.5,47.5C 165.886,49.9379 165.553,52.2712 163.5,54.5C 166.015,55.1997 166.682,56.5331 165.5,58.5C 165.977,59.4776 166.643,60.3109 167.5,61C 164.167,61.3333 160.833,61.6667 157.5,62C 158.956,62.4226 159.456,63.2559 159,64.5C 155.67,62.8618 152.17,62.3618 148.5,63C 151.529,63.539 154.529,64.2057 157.5,65C 156.748,65.6708 156.414,66.5041 156.5,67.5C 151.848,64.5335 146.848,63.8669 141.5,65.5C 137.126,69.5411 132.459,73.2078 127.5,76.5C 120.751,76.5855 116.751,79.9188 115.5,86.5C 114.833,86.8333 114.167,87.1667 113.5,87.5C 112.987,84.2891 111.654,81.4557 109.5,79C 96.1061,72.9342 89.2727,77.1008 89,91.5C 93.6177,101.15 100.618,103.15 110,97.5C 110.464,98.0944 110.631,98.7611 110.5,99.5C 110.5,99.8333 110.5,100.167 110.5,100.5C 99.6766,105.729 97.6766,113.396 104.5,123.5C 104.167,123.5 103.833,123.5 103.5,123.5C 91.5425,123.633 86.7091,129.633 89,141.5C 93.3563,147.586 99.1896,149.586 106.5,147.5C 103.808,150.562 101.474,153.896 99.5,157.5C 99.9186,158.672 100.585,159.672 101.5,160.5C 100.816,163.419 99.4825,165.919 97.5,168C 98.1667,168.333 98.8333,168.667 99.5,169C 98.3333,169.5 97.5,170.333 97,171.5C 95.951,169.893 94.451,169.227 92.5,169.5C 99.0984,164.144 100.098,157.81 95.5,150.5C 88.7285,144.904 82.3952,145.237 76.5,151.5C 76.5,150.5 76.5,149.5 76.5,148.5C 74.1432,148.663 71.8098,148.497 69.5,148C 68.944,147.617 68.6107,147.117 68.5,146.5C 83.8731,148.122 89.2064,141.456 84.5,126.5C 81.2588,124.808 77.7588,123.808 74,123.5C 70.1603,123.339 66.9936,124.672 64.5,127.5C 62.4922,125.917 60.1589,124.917 57.5,124.5C 71.5817,124.005 76.2484,117.005 71.5,103.5C 69.0987,102.951 66.7654,102.118 64.5,101C 57.0347,99.8985 51.7014,102.732 48.5,109.5C 49.6913,104.882 48.0246,102.382 43.5,102C 42.6195,101.292 41.9528,100.458 41.5,99.5C 43.9564,100.262 46.4564,100.929 49,101.5C 60.5155,98.8022 63.6822,92.1356 58.5,81.5C 59.7348,81.2786 60.7348,80.6119 61.5,79.5C 62.1719,80.9492 62.8386,82.2825 63.5,83.5C 62.925,85.0755 62.5916,86.7422 62.5,88.5C 63.6093,98.7383 69.2759,102.572 79.5,100C 90.0048,92.0793 90.0048,84.246 79.5,76.5C 80.8333,76.5 82.1667,76.5 83.5,76.5C 83.7704,71.9725 84.4371,67.6391 85.5,63.5C 85.5,67.5 85.5,71.5 85.5,75.5C 87.5988,76.2309 89.5988,76.2309 91.5,75.5C 92.4764,72.8371 93.8097,70.5038 95.5,68.5C 95.5,70.8333 95.5,73.1667 95.5,75.5C 99.5474,75.3048 103.547,75.6381 107.5,76.5C 109.745,75.0764 112.245,74.4098 115,74.5C 117.352,74.3049 119.352,74.9716 121,76.5C 121.202,74.7444 121.702,73.0777 122.5,71.5C 123.386,72.325 123.719,73.325 123.5,74.5C 124.5,74.5 125.5,74.5 126.5,74.5C 126.5,73.5 126.5,72.5 126.5,71.5C 128.604,71.7989 130.604,71.4656 132.5,70.5C 130.703,69.3049 129.703,67.6382 129.5,65.5C 132.157,65.838 134.49,65.1713 136.5,63.5C 140.409,66.2297 141.409,65.7297 139.5,62C 140.167,61.6667 140.833,61.3333 141.5,61C 140.122,59.2866 138.455,57.9533 136.5,57C 137.448,56.5172 138.448,56.3505 139.5,56.5C 138.147,53.9065 137.481,51.0732 137.5,48C 137.691,45.9501 138.358,44.1168 139.5,42.5C 136.872,39.4538 137.539,38.7871 141.5,40.5 Z"/></g>
<g><path style="opacity:1" fill="#f9fdfc" d="M 82.5,100.5 C 96.5542,99.9694 101.388,106.303 97,119.5C 89.3444,126.502 82.1777,126.002 75.5,118C 73.0372,110.109 75.3705,104.276 82.5,100.5 Z"/></g>
<g><path style="opacity:1" fill="#bc8c7c" d="M 159.5,58.5 C 159.027,59.9063 158.027,60.573 156.5,60.5C 156.973,59.0937 157.973,58.427 159.5,58.5 Z"/></g>
<g><path style="opacity:1" fill="#f9fcfb" d="M 57.5,124.5 C 51.2219,121.631 48.2219,116.631 48.5,109.5C 51.7014,102.732 57.0347,99.8985 64.5,101C 66.7654,102.118 69.0987,102.951 71.5,103.5C 76.2484,117.005 71.5817,124.005 57.5,124.5 Z"/></g>
<g><path style="opacity:1" fill="#c6a594" d="M 183.5,103.5 C 186.462,103.117 187.462,104.117 186.5,106.5C 185.145,105.812 184.145,104.812 183.5,103.5 Z"/></g>
<g><path style="opacity:1" fill="#73b4ec" d="M 122.5,100.5 C 124.435,101.15 126.435,101.483 128.5,101.5C 128.425,104.206 128.092,106.873 127.5,109.5C 126.504,109.414 125.671,109.748 125,110.5C 123.392,107.379 122.559,104.046 122.5,100.5 Z"/></g>
<g><path style="opacity:1" fill="#f7f7f2" d="M 110.5,100.5 C 108.475,107.317 107.308,114.317 107,121.5C 106.292,122.381 105.458,123.047 104.5,123.5C 97.6766,113.396 99.6766,105.729 110.5,100.5 Z"/></g>
<g><path style="opacity:1" fill="#ea8841" d="M 121.5,101.5 C 120.701,104.43 120.368,107.43 120.5,110.5C 122.346,110.222 123.68,110.889 124.5,112.5C 123.479,114.188 122.145,115.521 120.5,116.5C 119.519,111.871 119.352,107.204 120,102.5C 120.383,101.944 120.883,101.611 121.5,101.5 Z"/></g>
<g><path style="opacity:1" fill="#dfddd6" d="M 122.5,100.5 C 122.559,104.046 123.392,107.379 125,110.5C 125.671,109.748 126.504,109.414 127.5,109.5C 126.79,113.025 125.79,116.358 124.5,119.5C 120.078,121.314 117.078,124.981 115.5,130.5C 115.043,131.298 114.376,131.631 113.5,131.5C 115.032,126.104 117.365,121.104 120.5,116.5C 122.145,115.521 123.479,114.188 124.5,112.5C 123.68,110.889 122.346,110.222 120.5,110.5C 120.368,107.43 120.701,104.43 121.5,101.5C 121.5,100.833 121.833,100.5 122.5,100.5 Z"/></g>
<g><path style="opacity:1" fill="#b0b0b5" d="M 179.5,115.5 C 182.505,117.299 185.838,117.966 189.5,117.5C 187.369,118.314 185.036,118.814 182.5,119C 186.202,119.681 189.869,119.515 193.5,118.5C 195.815,118.799 195.815,119.632 193.5,121C 188.804,121.914 184.304,121.414 180,119.5C 179.51,118.207 179.343,116.873 179.5,115.5 Z"/></g>
<g><path style="opacity:1" fill="#f8fcfb" d="M 68.5,146.5 C 61.3541,141.395 60.0207,135.061 64.5,127.5C 66.9936,124.672 70.1603,123.339 74,123.5C 77.7588,123.808 81.2588,124.808 84.5,126.5C 89.2064,141.456 83.8731,148.122 68.5,146.5 Z"/></g>
<g><path style="opacity:1" fill="#83aed8" d="M 147.5,141.5 C 145.926,141.063 144.759,140.063 144,138.5C 142.491,139.09 140.991,139.756 139.5,140.5C 143.335,141.996 143.335,142.996 139.5,143.5C 139.664,146.187 139.497,148.854 139,151.5C 138.667,150.833 138.333,150.167 138,149.5C 137.407,153.701 135.574,157.034 132.5,159.5C 135.893,151.177 138.226,142.511 139.5,133.5C 143.101,135.101 145.768,137.767 147.5,141.5 Z"/></g>
<g><path style="opacity:1" fill="#f5f6f1" d="M 103.5,123.5 C 100.269,128.744 96.6023,133.744 92.5,138.5C 94.503,142.987 97.8363,145.154 102.5,145C 105.698,140.974 109.032,137.141 112.5,133.5C 113.013,139.307 111.013,143.974 106.5,147.5C 99.1896,149.586 93.3563,147.586 89,141.5C 86.7091,129.633 91.5425,123.633 103.5,123.5 Z"/></g>
<g><path style="opacity:1" fill="#fbfdfc" d="M 92.5,169.5 C 77.5532,171.891 72.2199,165.891 76.5,151.5C 82.3952,145.237 88.7285,144.904 95.5,150.5C 100.098,157.81 99.0984,164.144 92.5,169.5 Z"/></g>
<g><path style="opacity:1" fill="#b59188" d="M 175.5,151.5 C 177.04,153.838 177.706,156.505 177.5,159.5C 175.96,157.162 175.294,154.495 175.5,151.5 Z"/></g>
<g><path style="opacity:1" fill="#a29f9f" d="M 130.5,162.5 C 130.408,164.848 129.408,166.514 127.5,167.5C 127.75,165.326 128.75,163.659 130.5,162.5 Z"/></g>
<g><path style="opacity:1" fill="#b48f8d" d="M 159.5,159.5 C 160.768,161.905 161.435,164.572 161.5,167.5C 159.96,165.162 159.294,162.495 159.5,159.5 Z"/></g>
<g><path style="opacity:1" fill="#7eafe1" d="M 132.5,159.5 C 132.461,160.583 132.127,161.583 131.5,162.5C 132.325,163.386 133.325,163.719 134.5,163.5C 134.392,166.382 133.226,168.715 131,170.5C 128.692,171.641 126.859,173.308 125.5,175.5C 124.914,175.291 124.414,174.957 124,174.5C 123.445,177.581 121.945,179.914 119.5,181.5C 121.292,176.281 123.959,171.614 127.5,167.5C 129.408,166.514 130.408,164.848 130.5,162.5C 130.427,160.973 131.094,159.973 132.5,159.5 Z"/></g>
<g><path style="opacity:1" fill="#d37f52" d="M 109.5,164.5 C 109.408,166.848 108.408,168.514 106.5,169.5C 106.75,167.326 107.75,165.659 109.5,164.5 Z"/></g>
<g><path style="opacity:1" fill="#d47d4e" d="M 106.5,169.5 C 106.245,171.967 105.245,173.967 103.5,175.5C 103.557,174.391 103.89,173.391 104.5,172.5C 104.427,170.973 105.094,169.973 106.5,169.5 Z"/></g>
<g><path style="opacity:1" fill="#85acd9" d="M 104.5,172.5 C 103.89,173.391 103.557,174.391 103.5,175.5C 102.028,177.117 101.361,179.117 101.5,181.5C 101.667,182.833 101.833,184.167 102,185.5C 105.866,190.029 110.366,190.695 115.5,187.5C 115.5,188.5 115.5,189.5 115.5,190.5C 111.76,190.241 108.094,190.574 104.5,191.5C 103.5,190.5 102.5,189.5 101.5,188.5C 100.689,184.941 99.6886,181.441 98.5,178C 99.3416,174.747 101.342,172.914 104.5,172.5 Z"/></g>
<g><path style="opacity:1" fill="#ae9491" d="M 180.5,175.5 C 181.798,179.408 181.632,183.408 180,187.5C 179.184,188.823 178.017,189.489 176.5,189.5C 179.926,185.532 181.26,180.865 180.5,175.5 Z"/></g>
<g><path style="opacity:1" fill="#ab9691" d="M 119.5,181.5 C 119.155,184.198 117.822,186.198 115.5,187.5C 116.298,185.034 117.631,183.034 119.5,181.5 Z"/></g>
<g><path style="opacity:1" fill="#9aa1b0" d="M 165.5,185.5 C 167.847,188.917 171.18,190.251 175.5,189.5C 172.319,190.59 168.985,190.59 165.5,189.5C 165.5,188.167 165.5,186.833 165.5,185.5 Z"/></g>
</svg>
